<svg id="Layer_1" data-name="Layer 1" xmlns="http://www.w3.org/2000/svg" xmlns:xlink="http://www.w3.org/1999/xlink" viewBox="0 0 495.39 164.82"><defs><style>.cls-1{stroke-miterlimit:10;fill:url(#linear-gradient);stroke:url(#linear-gradient-2);}.cls-2{fill:url(#linear-gradient-3);}.cls-3{fill:url(#linear-gradient-4);}.cls-4{fill:url(#linear-gradient-5);}</style><linearGradient id="linear-gradient" x1="929.45" y1="620.82" x2="929.45" y2="457" gradientUnits="userSpaceOnUse"><stop offset="0" stop-color="#fff" stop-opacity="0"/><stop offset="0.03" stop-color="#fff" stop-opacity="0.02"/><stop offset="0.16" stop-color="#fff" stop-opacity="0.17"/><stop offset="0.46" stop-color="#fff" stop-opacity="0.48"/><stop offset="0.72" stop-color="#fff" stop-opacity="0.71"/><stop offset="0.9" stop-color="#fff" stop-opacity="0.85"/><stop offset="1" stop-color="#fff" stop-opacity="0.9"/></linearGradient><linearGradient id="linear-gradient-2" x1="712.23" y1="538.91" x2="1146.67" y2="538.91" gradientUnits="userSpaceOnUse"><stop offset="0" stop-color="#fff" stop-opacity="0"/><stop offset="1" stop-color="#1f1f1f" stop-opacity="0"/></linearGradient><linearGradient id="linear-gradient-3" x1="1124.32" y1="620.66" x2="1124.32" y2="516.2" xlink:href="#linear-gradient"/><linearGradient id="linear-gradient-4" x1="982.52" y1="620.76" x2="982.52" y2="506.22" xlink:href="#linear-gradient"/><linearGradient id="linear-gradient-5" x1="909.01" y1="620.75" x2="909.01" y2="594.12" xlink:href="#linear-gradient"/></defs><path id="e" class="cls-1" d="M768.05,459.12c1.79-.71,3.59-2,5.39-2,21.3-.15,42.61-.1,63.92-.1L1146,457q-5.57,16.5-11.11,33H810.72c-4,11.42-8.06,22.86-12.32,35h53.89l-10.58,30H787.57c-4.28,12.78-8.55,25.51-13,38.81h99.75c-3.29,9.39-6.39,18.2-9.47,27H712.92c6.11-18.19,12-36.11,18.15-53.94s12.6-35.7,18.81-53.58c5.94-17.08,11.74-34.2,17.58-51.32A22.65,22.65,0,0,0,768.05,459.12Z" transform="translate(-712.23 -456.5)"/><path class="cls-2" d="M1198.24,578.94h-109.6c-5,13.94-10,27.79-15,41.72H1041c11.91-35.2,23.61-69.81,35.33-104.46h33.18c5.37,12.22,10.9,24.79,16.31,37.11h81.79C1204.49,561.87,1201.46,570.16,1198.24,578.94ZM1107,565c-2.34-4.64-4.38-8.68-7.08-14.05-1.88,5.48-3.3,9.62-4.81,14.05Z" transform="translate(-712.23 -456.5)"/><path class="cls-3" d="M994.6,620.76H966.45C954.73,587.61,943,554.32,931,520.36h35.6c4.92,16,9.91,32.25,14.9,48.49l1,.29q11-31.5,21.91-62.92h29.73Z" transform="translate(-712.23 -456.5)"/><path class="cls-4" d="M899.23,594.12h29c-3.21,9.11-6.33,17.92-9.4,26.63H889.78C893,611.58,896.16,602.76,899.23,594.12Z" transform="translate(-712.23 -456.5)"/></svg>