<?xml version="1.0" encoding="UTF-8" standalone="no"?>
<svg
   xmlns:dc="http://purl.org/dc/elements/1.1/"
   xmlns:cc="http://creativecommons.org/ns#"
   xmlns:rdf="http://www.w3.org/1999/02/22-rdf-syntax-ns#"
   xmlns:svg="http://www.w3.org/2000/svg"
   xmlns="http://www.w3.org/2000/svg"
   width="98.886009mm"
   height="98.886009mm"
   viewBox="0 0 98.886009 98.886009"
   version="1.1"
   id="svg92">
  <defs
     id="defs86" />
  <metadata
     id="metadata89">
    <rdf:RDF>
      <cc:Work
         rdf:about="">
        <dc:format>image/svg+xml</dc:format>
        <dc:type
           rdf:resource="http://purl.org/dc/dcmitype/StillImage" />
        <dc:title></dc:title>
      </cc:Work>
    </rdf:RDF>
  </metadata>
  <g
     id="layer1"
     transform="translate(-127.08332,15.058627)">
    <g
       id="g1086"
       transform="matrix(0.15838867,0,0,0.15838867,75.868485,245.43566)"
       style="display:inline">
      <circle
         stroke="#8c755d"
         stroke-width="21"
         id="svg_32"
         fill="none"
         cy="-1332.4897"
         cx="635.5116"
         style="display:inline;opacity:1;stroke:#d68837;stroke-width:36.9881;stroke-miterlimit:4;stroke-dasharray:none;stroke-opacity:1"
         r="293.6684" />
      <circle
         style="fill:#f0f0f0"
         cx="635.51166"
         cy="-1332.4897"
         r="256"
         id="circle1025" />
      <path
         style="fill:#0052b4"
         d="m 875.58859,-1243.4468 c 10.291,-27.733 15.923,-57.729 15.923,-89.043 0,-31.314 -5.632,-61.31 -15.923,-89.043 h -480.154 c -10.29,27.733 -15.923,57.729 -15.923,89.043 0,31.314 5.633,61.31 15.923,89.043 l 240.077,22.261 z"
         id="path1027" />
      <path
         style="fill:#d80027"
         d="m 635.51159,-1076.4898 c 110.071,0 203.906,-69.472 240.077,-166.957 h -480.154 c 36.171,97.485 130.006,166.957 240.077,166.957 z"
         id="path1029" />
      <g
         id="g1031"
         transform="translate(62.122518,63.603866)">
</g>
      <g
         id="g1033"
         transform="translate(62.122518,63.603866)">
</g>
      <g
         id="g1035"
         transform="translate(62.122518,63.603866)">
</g>
      <g
         id="g1037"
         transform="translate(62.122518,63.603866)">
</g>
      <g
         id="g1039"
         transform="translate(62.122518,63.603866)">
</g>
      <g
         id="g1041"
         transform="translate(62.122518,63.603866)">
</g>
      <g
         id="g1043"
         transform="translate(62.122518,63.603866)">
</g>
      <g
         id="g1045"
         transform="translate(62.122518,63.603866)">
</g>
      <g
         id="g1047"
         transform="translate(62.122518,63.603866)">
</g>
      <g
         id="g1049"
         transform="translate(62.122518,63.603866)">
</g>
      <g
         id="g1051"
         transform="translate(62.122518,63.603866)">
</g>
      <g
         id="g1053"
         transform="translate(62.122518,63.603866)">
</g>
      <g
         id="g1055"
         transform="translate(62.122518,63.603866)">
</g>
      <g
         id="g1057"
         transform="translate(62.122518,63.603866)">
</g>
      <g
         id="g1059"
         transform="translate(62.122518,63.603866)">
</g>
    </g>
  </g>
</svg>
