<?xml version="1.0" encoding="UTF-8" standalone="no"?>
<svg
   xmlns:dc="http://purl.org/dc/elements/1.1/"
   xmlns:cc="http://creativecommons.org/ns#"
   xmlns:rdf="http://www.w3.org/1999/02/22-rdf-syntax-ns#"
   xmlns:svg="http://www.w3.org/2000/svg"
   xmlns="http://www.w3.org/2000/svg"
   width="98.886009mm"
   height="98.886009mm"
   viewBox="0 0 98.886009 98.886009"
   version="1.1"
   id="svg92">
  <defs
     id="defs86" />
  <metadata
     id="metadata89">
    <rdf:RDF>
      <cc:Work
         rdf:about="">
        <dc:format>image/svg+xml</dc:format>
        <dc:type
           rdf:resource="http://purl.org/dc/dcmitype/StillImage" />
        <dc:title></dc:title>
      </cc:Work>
    </rdf:RDF>
  </metadata>
  <g
     id="layer1"
     transform="translate(-127.08332,15.058627)">
    <g
       id="g43"
       transform="matrix(0.40412942,0,0,0.40412942,124.73305,-17.408899)"
       style="display:inline">
      <title
         id="title18">Layer 1</title>
      <circle
         stroke="#8c755d"
         stroke-width="21"
         id="svg_32"
         fill="none"
         r="115.09618"
         cy="128.16013"
         cx="128.16013"
         style="display:inline;opacity:1;stroke-width:14.4966;stroke-miterlimit:4;stroke-dasharray:none;stroke:#d68837;stroke-opacity:1" />
      <circle
         stroke-width="0"
         transform="scale(0.391927)"
         id="svg_58"
         fill="#f0f0f0"
         r="256"
         cy="326.59143"
         cx="326.59146"
         style="opacity:1" />
      <!--  <circle style="fill: transparent;" cx="278" cy="278" r="280"/>-->
      <g
         transform="scale(0.391927)"
         id="svg_33"
         style="opacity:1">
        <path
           stroke-width="0"
           id="svg_34"
           fill="#d80027"
           d="m 315.46145,326.59143 h 267.13 c 0,-23.106 -3.08,-45.49 -8.819,-66.783 h -258.311 z" />
        <path
           stroke-width="0"
           id="svg_35"
           fill="#d80027"
           d="m 315.46145,193.02643 h 229.556 c -15.671,-25.572 -35.708,-48.175 -59.07,-66.783 h -170.486 z" />
        <path
           stroke-width="0"
           id="svg_36"
           fill="#d80027"
           d="m 326.59145,582.59143 c 60.249,0 115.626,-20.824 159.356,-55.652 h -318.712 c 43.73,34.828 99.107,55.652 159.356,55.652 z" />
        <path
           stroke-width="0"
           id="svg_37"
           fill="#d80027"
           d="m 108.16545,460.15643 h 436.852 c 12.581,-20.529 22.338,-42.969 28.755,-66.783 h -494.362 c 6.417,23.814 16.174,46.254 28.755,66.783 z" />
      </g>
      <path
         stroke-width="0"
         id="svg_38"
         fill="#0052b4"
         d="m 74.14296,43.33513 h 9.14327 l -8.50482,6.17873 3.24868,9.99767 -8.50442,-6.17873 -8.50442,6.17873 2.8062,-8.6369 C 56.33929,57.11215 49.77608,64.42002 44.36749,72.56269 h 2.92965 l -5.41369,3.93299 c -0.84343,1.40702 -1.65236,2.83638 -2.4276,4.2869 l 2.58515,7.95651 -4.82305,-3.50422 c -1.1989,2.54008 -2.29552,5.13738 -3.28121,7.78877 l 2.84813,8.76662 h 10.51227 l -8.50482,6.17873 3.24868,9.99767 -8.50442,-6.17873 -5.09427,3.70136 c -0.5099,4.09877 -0.77562,8.27358 -0.77562,12.5107 H 128 c 0,-55.41221 0,-61.94485 0,-100.33331 -19.82053,0 -38.29715,5.74957 -53.85704,15.66846 z m 3.88713,74.63152 -8.50442,-6.17873 -8.50442,6.17873 3.24868,-9.99767 -8.50482,-6.17873 h 10.51227 l 3.24829,-9.99767 3.24829,9.99767 h 10.51227 l -8.50482,6.17873 z m -3.24868,-39.22523 3.24868,9.99767 -8.50442,-6.17873 -8.50442,6.17873 3.24868,-9.99767 -8.50482,-6.17873 h 10.51227 l 3.24829,-9.99767 3.24829,9.99767 h 10.51227 z m 39.23777,39.22523 -8.50442,-6.17873 -8.50442,6.17873 3.24868,-9.99767 -8.50482,-6.17873 h 10.51227 l 3.24829,-9.99767 3.24829,9.99767 h 10.51227 l -8.50482,6.17873 z m -3.24868,-39.22523 3.24868,9.99767 -8.50442,-6.17873 -8.50442,6.17873 3.24868,-9.99767 -8.50482,-6.17873 h 10.51227 l 3.24829,-9.99767 3.24829,9.99767 h 10.51227 z m 0,-29.22756 3.24868,9.99767 -8.50442,-6.17873 -8.50442,6.17873 3.24868,-9.99767 -8.50482,-6.17873 h 10.51227 l 3.24829,-9.99767 3.24829,9.99767 h 10.51227 z"
         style="opacity:1" />
      <g
         transform="scale(0.391927)"
         id="svg_39" />
      <g
         transform="scale(0.391927)"
         id="svg_40" />
      <g
         transform="scale(0.391927)"
         id="svg_41" />
      <g
         transform="scale(0.391927)"
         id="svg_42" />
      <g
         transform="scale(0.391927)"
         id="svg_43" />
      <g
         transform="scale(0.391927)"
         id="svg_44" />
      <g
         transform="scale(0.391927)"
         id="svg_45" />
      <g
         transform="scale(0.391927)"
         id="svg_46" />
      <g
         transform="scale(0.391927)"
         id="svg_47" />
      <g
         transform="scale(0.391927)"
         id="svg_48" />
      <g
         transform="scale(0.391927)"
         id="svg_49" />
      <g
         transform="scale(0.391927)"
         id="svg_50" />
      <g
         transform="scale(0.391927)"
         id="svg_51" />
      <g
         transform="scale(0.391927)"
         id="svg_52" />
      <g
         transform="scale(0.391927)"
         id="svg_53" />
    </g>
  </g>
</svg>
